<?xml version="1.0" encoding="utf-8"?>
<svg version="1.1" id="Layer_1"
xmlns="http://www.w3.org/2000/svg"
xmlns:xlink="http://www.w3.org/1999/xlink"
width="116px" height="164px"
xml:space="preserve">
<g id="PathID_7190" transform="matrix(0.0352941, 0, 0, 0.0352941, 0, 37.8)">
<path style="fill:#666666;fill-opacity:1" d="M49.5 0q9.5 -93.5 13.5 -155q7.5 -109 16 -298.5q6 -132 6 -186l0 -43q83.5 1 115 1q21 0 108 -1l-23.5 373.5l-12 309l-108.5 -1q-23 0 -114.5 1l0 0M300 -360l112 -152.5l90.5 -127l28 -43q93 1 126 1q9 0 119.5 -1l-211 266.5l-39.5 53.5l37 59l209 303.5l-123 -1q-40 0 -135.5 1q-64.5 -121.5 -213 -360l0 0" />
</g>
<g id="PathID_7191" transform="matrix(0.0352941, 0, 0, 0.0352941, 48, 37.8)">
<path style="fill:#666666;fill-opacity:1" d="M463 -695.5q80 0 154 21.5q74 21.5 129.5 69q55.5 47 83 108.5q27.5 61.5 27.5 141.5q0 84 -30 154.5q-30.5 70 -87.5 119q-57 49 -136 72q-79 22.5 -164.5 22.5q-84.5 0 -162 -22q-77.5 -22.5 -134.5 -72q-57.5 -50 -81.5 -111q-24 -61 -24 -135.5q0 -109.5 51 -192q50.5 -83 150.5 -129.5q99.5 -46.5 224.5 -46.5l0 0M454 -545q-57.5 0 -104 28.5q-46.5 28 -71.5 78.5q-25 50 -25 107.5q0 53 23 97q22.5 44 69 69q46.5 24.5 98.5 24.5q55.5 0 102 -27.5q46 -28 70.5 -78q24 -50.5 24 -105.5q0 -53.5 -22.5 -98.5q-22.5 -45.5 -66 -70.5q-43.5 -25 -98 -25l0 0" />
</g>
</svg>
