<?xml version="1.0" encoding="utf-8"?>
<svg version="1.1" id="Layer_1"
xmlns="http://www.w3.org/2000/svg"
xmlns:xlink="http://www.w3.org/1999/xlink"
width="356px" height="404px"
xml:space="preserve">
<g id="PathID_6655" transform="matrix(0.0352941, 0, 0, 0.0352941, 48, 37.8)">
<path style="fill:#666666;fill-opacity:1" d="M68 -473.5l-23 -137l0 -122.5l102.5 0l0 122.5l-24 137l-55.5 0" />
</g>
<g id="PathID_6656" transform="matrix(0.0352941, 0, 0, 0.0352941, 96, 37.8)">
<path style="fill:#666666;fill-opacity:1" d="M32.5 -220l0 -90.5l276.5 0l0 90.5l-276.5 0" />
</g>
<g id="PathID_6657" transform="matrix(0.0352941, 0, 0, 0.0352941, 144, 37.8)">
<path style="fill:#666666;fill-opacity:1" d="M236 -180.5q-0.5 -18 -0.5 -27q0 -53 15 -91.5q11 -29 35.5 -58.5q18 -21.5 65 -62.5q46.5 -41.5 60.5 -66q14 -24.5 14 -53.5q0 -52.5 -41 -92q-41 -40 -100.5 -40q-57.5 0 -96 36q-38.5 36 -50.5 112.5l-92.5 -11q12.5 -102.5 74.5 -157q61.5 -54.5 163 -54.5q107.5 0 171.5 58.5q64 58.5 64 141.5q0 48 -22.5 88.5q-22.5 40.5 -88 98.5q-44 39 -57.5 57.5q-13.5 18.5 -20 42.5q-6.5 24 -7.5 78l-86.5 0M230.5 0l0 -102.5l102.5 0l0 102.5l-102.5 0" />
</g>
<g id="PathID_6658" transform="matrix(0.0352941, 0, 0, 0.0352941, 192, 37.8)">
<path style="fill:#666666;fill-opacity:1" d="M-1.5 0l281.5 -733l104.5 0l300 733l-110.5 0l-85.5 -222l-306.5 0l-80.5 222l-103 0M210 -301l248.5 0l-76.5 -203q-35 -92.5 -52 -152q-14 70.5 -39.5 140l-80.5 215" />
</g>
<g id="PathID_6659" transform="matrix(0.0352941, 0, 0, 0.0352941, 240, 37.8)">
<path style="fill:#666666;fill-opacity:1" d="M75 0l0 -733l275 0q84 0 135 22.5q50.5 22 79.5 68.5q28.5 46 28.5 96.5q0 47 -25.5 88.5q-25.5 41.5 -77 67q66.5 19.5 102.5 66.5q35.5 47 35.5 111q0 51.5 -21.5 96q-22 44 -54 68q-32 24 -80 36.5q-48.5 12 -118.5 12l-279.5 0M172 -425l158.5 0q64.5 0 92.5 -8.5q37 -11 56 -36.5q18.5 -25.5 18.5 -64q0 -36.5 -17.5 -64q-17.5 -28 -50 -38q-32.5 -10.5 -111.5 -10.5l-146.5 0l0 221.5M172 -86.5l182.5 0q47 0 66 -3.5q33.5 -6 56 -20q22.5 -14 37 -40.5q14.5 -27 14.5 -62q0 -41 -21 -71q-21 -30.5 -58 -42.5q-37.5 -12.5 -107.5 -12.5l-169.5 0l0 252" />
</g>
<g id="PathID_6660" transform="matrix(0.0352941, 0, 0, 0.0352941, 288, 37.8)">
<path style="fill:#666666;fill-opacity:1" d="M602 -257l97 24.5q-30.5 119.5 -109.5 182.5q-79.5 62.5 -194 62.5q-118.5 0 -192.5 -48q-74.5 -48.5 -113 -140q-39 -91.5 -39 -196.5q0 -114.5 44 -199.5q43.5 -85.5 124.5 -129.5q80.5 -44.5 177.5 -44.5q110 0 185 56q75 56 104.5 157.5l-95.5 22.5q-25.5 -80 -74 -116.5q-48.5 -36.5 -122 -36.5q-84.5 0 -141 40.5q-57 40.5 -80 109q-23 68 -23 140.5q0 93.5 27.5 163.5q27 69.5 84.5 104q57.5 34.5 124.5 34.5q81.5 0 138 -47q56.5 -47 76.5 -139.5l0 0" />
</g>
<g id="PathID_6661" transform="matrix(0.0352941, 0, 0, 0.0352941, 0, 84)">
<path style="fill:#666666;fill-opacity:1" d="M79 0l0 -733l252.5 0q85.5 0 130.5 10.5q63 14.5 107.5 52.5q58 49 87 125.5q28.5 76 28.5 174q0 83.5 -19.5 148q-19.5 64.5 -50 107q-30.5 42 -66.5 66.5q-36.5 24 -87.5 36.5q-51.5 12.5 -118 12.5l-264.5 0M176 -86.5l156.5 0q72.5 0 114 -13.5q41 -13.5 65.5 -38q34.5 -34.5 54 -92.5q19 -58.5 19 -141.5q0 -115 -37.5 -176.5q-38 -62 -92 -83q-39 -15 -125.5 -15l-154 0l0 560" />
</g>
<g id="PathID_6662" transform="matrix(0.0352941, 0, 0, 0.0352941, 48, 84)">
<path style="fill:#666666;fill-opacity:1" d="M81 0l0 -733l530 0l0 86.5l-433 0l0 224.5l405.5 0l0 86l-405.5 0l0 249.5l450 0l0 86.5l-547 0" />
</g>
<g id="PathID_6663" transform="matrix(0.0352941, 0, 0, 0.0352941, 96, 84)">
<path style="fill:#666666;fill-opacity:1" d="M84 0l0 -733l494.5 0l0 86.5l-397.5 0l0 227l344 0l0 86.5l-344 0l0 333l-97 0" />
</g>
<g id="PathID_6664" transform="matrix(0.0352941, 0, 0, 0.0352941, 144, 84)">
<path style="fill:#666666;fill-opacity:1" d="M422 -287.5l0 -86l310.5 -0.5l0 272q-71.5 57 -147.5 86q-76 28.5 -156 28.5q-108 0 -196 -46q-88.5 -46.5 -133.5 -134q-45 -87.5 -45 -195.5q0 -107 45 -199.5q44.5 -93 128.5 -138q84 -45 193.5 -45q79.5 0 144 26q64 25.5 100.5 71.5q36.5 46 55.5 120l-87.5 24q-16.5 -56 -41 -88q-24.5 -32 -70 -51q-45.5 -19.5 -101 -19.5q-66.5 0 -115 20.5q-48.5 20 -78 53q-30 33 -46.5 72.5q-28 68 -28 147.5q0 98 34 164q33.5 66 98 98q64.5 32 137 32q63 0 123 -24q60 -24.5 91 -52l0 -136.5l-215.5 0" />
</g>
<g id="PathID_6665" transform="matrix(0.0352941, 0, 0, 0.0352941, 192, 84)">
<path style="fill:#666666;fill-opacity:1" d="M95.5 0l0 -733l97 0l0 733l-97 0" />
</g>
<g id="PathID_6666" transform="matrix(0.0352941, 0, 0, 0.0352941, 240, 84)">
<path style="fill:#666666;fill-opacity:1" d="M75 0l0 -733l97 0l0 646.5l361 0l0 86.5l-458 0" />
</g>
<g id="PathID_6667" transform="matrix(0.0352941, 0, 0, 0.0352941, 288, 84)">
<path style="fill:#666666;fill-opacity:1" d="M76 0l0 -733l146 0l173.5 519q24 72.5 35 108.5q12.5 -40 39 -117.5l175.5 -510l130.5 0l0 733l-93.5 0l0 -613.5l-213 613.5l-87.5 0l-212 -624l0 624l-93.5 0" />
</g>
<g id="PathID_6668" transform="matrix(0.0352941, 0, 0, 0.0352941, 0, 132)">
<path style="fill:#666666;fill-opacity:1" d="M78 0l0 -733l99.5 0l385 575.5l0 -575.5l93 0l0 733l-99.5 0l-385 -576l0 576l-93 0" />
</g>
<g id="PathID_6669" transform="matrix(0.0352941, 0, 0, 0.0352941, 48, 132)">
<path style="fill:#666666;fill-opacity:1" d="M49.5 -357q0 -182.5 98 -285.5q98 -103.5 253 -103.5q101.5 0 183 48.5q81.5 48.5 124.5 135.5q42.5 86.5 42.5 196.5q0 111.5 -45 199.5q-45 88 -127.5 133.5q-82.5 45 -178 45q-103.5 0 -185 -50q-81.5 -50 -123.5 -136.5q-42 -86.5 -42 -183l0 0M149.5 -355.5q0 132.5 71.5 209q71 76 178.5 76q109.5 0 180.5 -77q70.5 -77 70.5 -218.5q0 -89.5 -30 -156q-30.5 -67 -88.5 -103.5q-58.5 -37 -131 -37q-103 0 -177 71q-74.5 70.5 -74.5 236l0 0" />
</g>
<g id="PathID_6670" transform="matrix(0.0352941, 0, 0, 0.0352941, 96, 132)">
<path style="fill:#666666;fill-opacity:1" d="M79 0l0 -733l276.5 0q73 0 111.5 7q54 9 90.5 34.5q36.5 25 59 70.5q22 45.5 22 100q0 93.5 -59.5 158.5q-59.5 64.5 -215 64.5l-188 0l0 298l-97 0M176 -384.5l189.5 0q94 0 133.5 -35q39.5 -35 39.5 -98.5q0 -46 -23 -78.5q-23.5 -33 -61.5 -43.5q-24.5 -6.5 -90.5 -6.5l-187.5 0l0 262" />
</g>
<g id="PathID_6671" transform="matrix(0.0352941, 0, 0, 0.0352941, 144, 132)">
<path style="fill:#666666;fill-opacity:1" d="M80.5 0l0 -733l325 0q98 0 149 20q51 19.5 81.5 69.5q30.5 50 30.5 110.5q0 78 -50.5 131.5q-50.5 53.5 -156 68q38.5 18.5 58.5 36.5q42.5 39 80.5 97.5l127.5 199.5l-122 0l-97 -152.5q-42.5 -66 -70 -101q-27.5 -35 -49 -49q-22 -14 -44.5 -19.5q-16.5 -3.5 -54 -3.5l-112.5 0l0 325.5l-97 0M177.5 -409.5l208.5 0q66.5 0 104 -13.5q37.5 -14 57 -44q19.5 -30.5 19.5 -66q0 -52 -37.5 -85.5q-38 -33.5 -119.5 -33.5l-232 0l0 242.5" />
</g>
<g id="PathID_6672" transform="matrix(0.0352941, 0, 0, 0.0352941, 192, 132)">
<path style="fill:#666666;fill-opacity:1" d="M46 -235.5l91.5 -8q6.5 55 30.5 90.5q23.5 35 73.5 57q50 21.5 112.5 21.5q55.5 0 98 -16.5q42.5 -16.5 63.5 -45q20.5 -29 20.5 -63q0 -34.5 -20 -60q-20 -26 -66 -43.5q-29.5 -11.5 -130.5 -35.5q-101 -24.5 -141.5 -46q-52.5 -27.5 -78 -68q-26 -41 -26 -91.5q0 -55.5 31.5 -103.5q31.5 -48.5 92 -73.5q60.5 -25 134.5 -25q81.5 0 144 26.5q62 26 95.5 77q33.5 51 36 115.5l-93 7q-7.5 -69.5 -50.5 -105q-43.5 -35.5 -128 -35.5q-88 0 -128 32.5q-40.5 32 -40.5 77.5q0 39.5 28.5 65q28 25.5 146.5 52.5q118 26.5 162 46.5q64 29.5 94.5 75q30.5 45 30.5 104q0 58.5 -33.5 110.5q-33.5 51.5 -96 80.5q-63 28.5 -141.5 28.5q-99.5 0 -166.5 -29q-67.5 -29 -105.5 -87q-38.5 -58.5 -40.5 -132l0 0" />
</g>
<g id="PathID_6673" transform="matrix(0.0352941, 0, 0, 0.0352941, 240, 132)">
<path style="fill:#666666;fill-opacity:1" d="M265.5 0l0 -646.5l-241.5 0l0 -86.5l581 0l0 86.5l-242.5 0l0 646.5l-97 0" />
</g>
<g id="PathID_6674" transform="matrix(0.0352941, 0, 0, 0.0352941, 288, 132)">
<path style="fill:#666666;fill-opacity:1" d="M560 -733l97 0l0 423.5q0 110.5 -25 175.5q-25 65 -90 106q-65.5 40.5 -171.5 40.5q-103 0 -168.5 -35.5q-65.5 -35.5 -93.5 -102.5q-28 -67.5 -28 -184l0 -423.5l97 0l0 423q0 95.5 18 141q17.5 45 61 69.5q43 24.5 105.5 24.5q107 0 152.5 -48.5q45.5 -48.5 45.5 -186.5l0 -423" />
</g>
<g id="PathID_6675" transform="matrix(0.0352941, 0, 0, 0.0352941, 0, 180)">
<path style="fill:#666666;fill-opacity:1" d="M119.5 -345l-92.5 0l176.5 -400.5l72.5 0l177.5 400.5l-90.5 0l-123.5 -298.5l-120 298.5" />
</g>
<g id="PathID_6676" transform="matrix(0.0352941, 0, 0, 0.0352941, 48, 180)">
<path style="fill:#666666;fill-opacity:1" d="M414 -65.5q-50 42.5 -96 60q-46.5 17.5 -99.5 17.5q-87.5 0 -134.5 -42.5q-47 -43 -47 -109.5q0 -39 18 -71q17.5 -32.5 46.5 -52q28.5 -19.5 64.5 -29.5q26.5 -7 80 -13.5q109 -13 160.5 -31q0.5 -18.5 0.5 -23.5q0 -55 -25.5 -77.5q-34.5 -30.5 -102.5 -30.5q-63.5 0 -93.5 22.5q-30.5 22 -45 78.5l-88 -12q12 -56.5 39.5 -91q27.5 -35 79.5 -53.5q52 -19 120.5 -19q68 0 110.5 16q42.5 16 62.5 40.5q20 24 28 61q4.5 23 4.5 83l0 120q0 125.5 6 159q5.5 33 22.5 63.5l-94 0q-14 -28 -18 -65.5l0 0M406.5 -266.5q-49 20 -147 34q-55.5 8 -78.5 18q-23 10 -35.5 29.5q-12.5 19 -12.5 42.5q0 36 27.5 60q27 24 79.5 24q52 0 92.5 -22.5q40.5 -23 59.5 -62.5q14.5 -30.5 14.5 -90l0 -33" />
</g>
<g id="PathID_6677" transform="matrix(0.0352941, 0, 0, 0.0352941, 96, 180)">
<path style="fill:#666666;fill-opacity:1" d="M150.5 0l-83.5 0l0 -733l90 0l0 261.5q57 -71.5 145.5 -71.5q49 0 93 20q43.5 19.5 72 55.5q28 35.5 44 86q16 50.5 16 108q0 136.5 -67.5 211q-67.5 74.5 -162 74.5q-94 0 -147.5 -78.5l0 66.5M149.5 -269.5q0 95.5 26 138q42.5 69.5 115 69.5q59 0 102 -51q43 -51.5 43 -153q0 -104 -41 -153.5q-41.5 -49.5 -100 -49.5q-59 0 -102 51.5q-43 51 -43 148l0 0" />
</g>
<g id="PathID_6678" transform="matrix(0.0352941, 0, 0, 0.0352941, 144, 180)">
<path style="fill:#666666;fill-opacity:1" d="M414 -194.5l88.5 11.5q-14.5 91.5 -74 143.5q-60 51.5 -147 51.5q-109 0 -175 -71q-66.5 -71.5 -66.5 -204.5q0 -86 28.5 -150.5q28.5 -64.5 87 -96.5q58 -32.5 126.5 -32.5q86.5 0 141.5 44q55 43.5 70.5 124l-87.5 13.5q-12.5 -53.5 -44 -80.5q-32 -27 -77 -27q-68 0 -110.5 49q-42.5 48.5 -42.5 154q0 107 41 155.5q41 48.5 107 48.5q53 0 88.5 -32.5q35.5 -32.5 45 -100l0 0" />
</g>
<g id="PathID_6679" transform="matrix(0.0352941, 0, 0, 0.0352941, 192, 180)">
<path style="fill:#666666;fill-opacity:1" d="M412 0l0 -67q-50.5 79 -148.5 79q-63.5 0 -116.5 -35q-53.5 -35 -82.5 -97.5q-29.5 -63 -29.5 -144.5q0 -79.5 26.5 -144q26.5 -65 79.5 -99.5q53 -34.5 118.5 -34.5q48 0 85.5 20.5q37.5 20 61 52.5l0 -263l89.5 0l0 733l-83.5 0M127.5 -265q0 102 43 152.5q43 50.5 101.5 50.5q59 0 100.5 -48q41 -48.5 41 -147.5q0 -109 -42 -160q-42 -51 -103.5 -51q-60 0 -100 49q-40.5 49 -40.5 154.5l0 0" />
</g>
<g id="PathID_6680" transform="matrix(0.0352941, 0, 0, 0.0352941, 240, 180)">
<path style="fill:#666666;fill-opacity:1" d="M431 -171l93 11.5q-22 81.5 -81.5 126.5q-59.5 45 -152 45q-116.5 0 -184.5 -71.5q-68.5 -72 -68.5 -201.5q0 -134 69 -208q69 -74 179 -74q106.5 0 174 72.5q67.5 72.5 67.5 204q0 8 -0.5 24l-396 0q5 87.5 49.5 134q44.5 46.5 111 46.5q49.5 0 84.5 -26q35 -26 55.5 -83l0 0M135.5 -316.5l296.5 0q-6 -67 -34 -100.5q-43 -52 -111.5 -52q-62 0 -104 41.5q-42.5 41.5 -47 111l0 0" />
</g>
<g id="PathID_6681" transform="matrix(0.0352941, 0, 0, 0.0352941, 288, 180)">
<path style="fill:#666666;fill-opacity:1" d="M89 0l0 -461l-79.5 0l0 -70l79.5 0l0 -56.5q0 -53.5 9.5 -79.5q13 -35 46 -56.5q32.5 -22 91.5 -22q38 0 84 9l-13.5 78.5q-28 -5 -53 -5q-41 0 -58 17.5q-17 17.5 -17 65.5l0 49l103.5 0l0 70l-103.5 0l0 461l-89.5 0" />
</g>
<g id="PathID_6682" transform="matrix(0.0352941, 0, 0, 0.0352941, 0, 228)">
<path style="fill:#666666;fill-opacity:1" d="M51 44l87.5 13q5.5 40.5 30.5 59q33.5 25 91.5 25q62.5 0 96.5 -25q34 -25 46 -70q7 -27.5 6.5 -115.5q-59 69.5 -147 69.5q-109.5 0 -169.5 -79q-60 -79 -60 -189.5q0 -76 27.5 -140q27.5 -64.5 80 -99.5q52 -35 122.5 -35q94 0 155 76l0 -64l83 0l0 459q0 124 -25 176q-25.5 51.5 -80 81.5q-55 30 -135 30q-95 0 -153.5 -42.5q-58.5 -43 -56.5 -129l0 0M125.5 -275q0 104.5 41.5 152.5q41.5 48 104 48q62 0 104 -47.5q42 -48 42 -150q0 -97.5 -43 -147q-43.5 -49.5 -104.5 -49.5q-60 0 -102 49q-42 48.5 -42 144.5l0 0" />
</g>
<g id="PathID_6683" transform="matrix(0.0352941, 0, 0, 0.0352941, 48, 228)">
<path style="fill:#666666;fill-opacity:1" d="M67.5 0l0 -733l90 0l0 263q63 -73 159 -73q59 0 102.5 23.5q43.5 23 62.5 64q18.5 41 18.5 119l0 336.5l-90 0l0 -336.5q0 -67.5 -29 -98q-29.5 -31 -83 -31q-40 0 -75 21q-35.5 20.5 -50.5 56q-15 35.5 -15 98l0 290.5l-90 0" />
</g>
<g id="PathID_6684" transform="matrix(0.0352941, 0, 0, 0.0352941, 96, 228)">
<path style="fill:#666666;fill-opacity:1" d="M68 -629.5l0 -103.5l90 0l0 103.5l-90 0M68 0l0 -531l90 0l0 531l-90 0" />
</g>
<g id="PathID_6685" transform="matrix(0.0352941, 0, 0, 0.0352941, 144, 228)">
<path style="fill:#666666;fill-opacity:1" d="M67 -628.5l0 -104.5l90 0l0 104.5l-90 0M-47 206l17 -76.5q27 7 42.5 7q27.5 0 41 -18q13.5 -18.5 13.5 -91.5l0 -558l90 0l0 560q0 98 -25.5 136.5q-32.5 50 -108 50q-36.5 0 -70.5 -9.5l0 0" />
</g>
<g id="PathID_6686" transform="matrix(0.0352941, 0, 0, 0.0352941, 192, 228)">
<path style="fill:#666666;fill-opacity:1" d="M68 0l0 -733l90 0l0 418l213 -216l116.5 0l-203 197l223.5 334l-111 0l-175.5 -271.5l-63.5 61l0 210.5l-90 0" />
</g>
<g id="PathID_6687" transform="matrix(0.0352941, 0, 0, 0.0352941, 240, 228)">
<path style="fill:#666666;fill-opacity:1" d="M65.5 0l0 -733l90 0l0 733l-90 0" />
</g>
<g id="PathID_6688" transform="matrix(0.0352941, 0, 0, 0.0352941, 288, 228)">
<path style="fill:#666666;fill-opacity:1" d="M67.5 0l0 -531l80.5 0l0 74.5q25 -39 66.5 -62.5q41.5 -24 94.5 -24q59 0 97 24.5q37.5 24.5 53 68.5q63 -93 164 -93q79 0 121.5 44q42.5 43.5 42.5 134.5l0 364.5l-89.5 0l0 -334.5q0 -54 -8.5 -77.5q-9 -24 -32 -38.5q-23 -14.5 -54 -14.5q-56 0 -93 37.5q-37 37 -37 119l0 308.5l-90 0l0 -345q0 -60 -22 -90q-22 -30 -72 -30q-38 0 -70 20q-32.5 20 -47 58.5q-14.5 38.5 -14.5 111l0 275.5l-90 0" />
</g>
<g id="PathID_6689" transform="matrix(0.0352941, 0, 0, 0.0352941, 0, 276)">
<path style="fill:#666666;fill-opacity:1" d="M67.5 0l0 -531l81 0l0 75.5q58.5 -87.5 169 -87.5q48 0 88.5 17.5q40 17 60 45q20 28 28 66.5q5 25 5 87.5l0 326.5l-90 0l0 -323q0 -55 -10.5 -82q-10.5 -27.5 -37 -43.5q-27 -16.5 -63 -16.5q-57.5 0 -99 36.5q-42 36.5 -42 138.5l0 290l-90 0" />
</g>
<g id="PathID_6690" transform="matrix(0.0352941, 0, 0, 0.0352941, 48, 276)">
<path style="fill:#666666;fill-opacity:1" d="M34 -265.5q0 -147.5 82 -218.5q68.5 -59 167 -59q109.5 0 179 72q69.5 71.5 69.5 198q0 102.5 -30.5 161.5q-31 58.5 -89.5 91q-59 32.5 -128.5 32.5q-111.5 0 -180 -71.5q-69 -71.5 -69 -206l0 0M126.5 -265.5q0 102 44.5 153q44.5 50.5 112 50.5q67 0 111.5 -51q44.5 -51 44.5 -155.5q0 -98.5 -44.5 -149q-45 -51 -111.5 -51q-67.5 0 -112 50.5q-44.5 50.5 -44.5 152.5l0 0" />
</g>
<g id="PathID_6691" transform="matrix(0.0352941, 0, 0, 0.0352941, 96, 276)">
<path style="fill:#666666;fill-opacity:1" d="M67.5 203.5l0 -734.5l82 0l0 69q29 -40.5 65.5 -60.5q36.5 -20.5 88.5 -20.5q68 0 120 35q52 35 78.5 99q26.5 63.5 26.5 139.5q0 81.5 -29 147q-29.5 65 -85 100q-56 34.5 -117.5 34.5q-45 0 -80.5 -19q-36 -19 -59 -48l0 258.5l-90 0M149 -262.5q0 102.5 41.5 151.5q41.5 49 100.5 49q60 0 103 -50.5q42.5 -51 42.5 -157.5q0 -101.5 -41.5 -152q-42 -50.5 -100 -50.5q-57.5 0 -101.5 54q-44.5 53.5 -44.5 156l0 0" />
</g>
<g id="PathID_6692" transform="matrix(0.0352941, 0, 0, 0.0352941, 144, 276)">
<path style="fill:#666666;fill-opacity:1" d="M66.5 0l0 -531l81 0l0 80.5q31 -56.5 57.5 -74.5q26 -18 57.5 -18q45.5 0 92.5 29l-31 83.5q-33 -19.5 -66 -19.5q-29.5 0 -53 18q-23.5 17.5 -33.5 49q-15 48 -15 105l0 278l-90 0" />
</g>
<g id="PathID_6693" transform="matrix(0.0352941, 0, 0, 0.0352941, 192, 276)">
<path style="fill:#666666;fill-opacity:1" d="M31.5 -158.5l89 -14q7.5 53.5 42 82q34 28.5 95.5 28.5q62 0 92 -25q30 -25.5 30 -59.5q0 -30.5 -26.5 -48q-18.5 -12 -92 -30.5q-99 -25 -137 -43q-38.5 -18.5 -58 -50.5q-20 -32.5 -20 -71.5q0 -35.5 16.5 -65.5q16 -30.5 44 -50.5q21 -15.5 57.5 -26q36 -11 77.5 -11q62.5 0 110 18q47 18 69.5 49q22.5 30.5 31 82l-88 12q-6 -41 -34.5 -64q-29 -23 -81.5 -23q-62 0 -88.5 20.5q-26.5 20.5 -26.5 48q0 17.5 11 31.5q11 14.5 34.5 24q13.5 5 79.5 23q95.5 25.5 133.5 42q37.5 16 59 47q21.5 31 21.5 77q0 45 -26 85q-26.5 39.5 -76 61.5q-49.5 21.5 -112 21.5q-103.5 0 -157.5 -43q-54.5 -43 -69.5 -127.5l0 0" />
</g>
<g id="PathID_6694" transform="matrix(0.0352941, 0, 0, 0.0352941, 240, 276)">
<path style="fill:#666666;fill-opacity:1" d="M264 -80.5l13 79.5q-38 8 -68 8q-49 0 -76 -15.5q-27 -15.5 -38 -40.5q-11 -25.5 -11 -106.5l0 -305.5l-66 0l0 -70l66 0l0 -131.5l89.5 -54l0 185.5l90.5 0l0 70l-90.5 0l0 310.5q0 38.5 5 49.5q4.5 11 15.5 17.5q10.5 6.5 30.5 6.5q15 0 39.5 -3.5l0 0" />
</g>
<g id="PathID_6695" transform="matrix(0.0352941, 0, 0, 0.0352941, 288, 276)">
<path style="fill:#666666;fill-opacity:1" d="M415.5 0l0 -78q-62 90 -168.5 90q-47 0 -87.5 -18q-41 -18 -60.5 -45q-20 -27.5 -28 -67q-5.5 -26.5 -5.5 -84l0 -329l90 0l0 294.5q0 70.5 5.5 95q8.5 35.5 36 56q27.5 20 68 20q40.5 0 76 -20.5q35.5 -21 50.5 -56.5q14.5 -36 14.5 -104l0 -284.5l90 0l0 531l-80.5 0" />
</g>
<g id="PathID_6696" transform="matrix(0.0352941, 0, 0, 0.0352941, 0, 324)">
<path style="fill:#666666;fill-opacity:1" d="M215 0l-202 -531l95 0l114 318q18.5 51.5 34 107q12 -42 33.5 -101l118 -324l92.5 0l-201 531l-84 0" />
</g>
<g id="PathID_6697" transform="matrix(0.0352941, 0, 0, 0.0352941, 48, 324)">
<path style="fill:#666666;fill-opacity:1" d="M63.5 204.5l-10 -84.5q29.5 8 51.5 8q30 0 48 -10q18 -10 29.5 -28q8.5 -13.5 27.5 -67q2.5 -7.5 8 -22l-201.5 -532l97 0l110.5 307.5q21.5 58.5 38.5 123q15.5 -62 37 -121l113.5 -309.5l90 0l-202 540q-32.5 87.5 -50.5 120.5q-24 44.5 -55 65.5q-31 20.5 -74 20.5q-26 0 -58 -11l0 0" />
</g>
<g id="PathID_6698" transform="matrix(0.0352941, 0, 0, 0.0352941, 96, 324)">
<path style="fill:#666666;fill-opacity:1" d="M20 0l0 -73l338 -388q-57.5 3 -101.5 3l-216.5 0l0 -73l434 0l0 59.5l-287.5 337l-55.5 61.5q60.5 -4.5 113.5 -4.5l245.5 0l0 77.5l-470 0" />
</g>
<g id="PathID_6699" transform="matrix(0.0352941, 0, 0, 0.0352941, 144, 324)">
<path style="fill:#666666;fill-opacity:1" d="M414 -194.5l88.5 11.5q-14.5 91.5 -74 143.5q-60 51.5 -147 51.5q-109 0 -175 -71q-66.5 -71.5 -66.5 -204.5q0 -86 28.5 -150.5q28.5 -64.5 87 -96.5q58 -32.5 126.5 -32.5q86.5 0 141.5 44q55 43.5 70.5 124l-87.5 13.5q-12.5 -53.5 -44 -80.5q-32 -27 -77 -27q-68 0 -110.5 49q-42.5 48.5 -42.5 154q0 107 41 155.5q41 48.5 107 48.5q53 0 88.5 -32.5q35.5 -32.5 45 -100l0 0M205.5 67l26 -88.5l67 0l-16.5 53.5q42.5 5 64 26.5q21.5 21 21.5 47q0 37.5 -36 66.5q-36 28.5 -108.5 28.5q-41 0 -72 -6l5.5 -58.5q32 2 47 2q47 0 66 -13q14.5 -10 14.5 -24.5q0 -9 -5.5 -16q-6 -7 -21.5 -12q-15.5 -5 -51.5 -5.5l0 0" />
</g>
<g id="PathID_6700" transform="matrix(0.0352941, 0, 0, 0.0352941, 192, 324)">
<path style="fill:#666666;fill-opacity:1" d="M431 -171l93 11.5q-22 81.5 -81.5 126.5q-59.5 45 -152 45q-116.5 0 -184.5 -71.5q-68.5 -72 -68.5 -201.5q0 -134 69 -208q69 -74 179 -74q106.5 0 174 72.5q67.5 72.5 67.5 204q0 8 -0.5 24l-396 0q5 87.5 49.5 134q44.5 46.5 111 46.5q49.5 0 84.5 -26q35 -26 55.5 -83l0 0M135.5 -316.5l296.5 0q-6 -67 -34 -100.5q-43 -52 -111.5 -52q-62 0 -104 41.5q-42.5 41.5 -47 111l0 0M232.5 -597l66.5 -140l118 0l-110 140l-74.5 0" />
</g>
</svg>
