<?xml version="1.0" encoding="utf-8"?>
<svg version="1.1" id="Layer_1"
xmlns="http://www.w3.org/2000/svg"
xmlns:xlink="http://www.w3.org/1999/xlink"
width="164px" height="212px"
xml:space="preserve">
<g id="PathID_7184" transform="matrix(0.0352941, 0, 0, 0.0352941, 0, 37.8)">
<path style="fill:#666666;fill-opacity:1" d="M128.5 -189l-36.5 -372l0 -172l152 0l0 172l-36 372l-79.5 0M98 0l0 -140.5l140.5 0l0 140.5l-140.5 0" />
</g>
<g id="PathID_7185" transform="matrix(0.0352941, 0, 0, 0.0352941, 48, 37.8)">
<path style="fill:#666666;fill-opacity:1" d="M403 0l-140.5 0l0 -529.5q-77 72 -181.5 106.5l0 -127.5q55 -18 119.5 -68q64.5 -50.5 88.5 -117.5l114 0l0 736" />
</g>
<g id="PathID_7186" transform="matrix(0.0352941, 0, 0, 0.0352941, 96, 37.8)">
<path style="fill:#666666;fill-opacity:1" d="M518 -130.5l0 130.5l-492.5 0q8 -74 48 -140q40 -66.5 158 -176q95 -88.5 116.5 -120q29 -43.5 29 -86q0 -47 -25 -72q-25.5 -25.5 -70 -25.5q-44 0 -70 26.5q-26 26.5 -30 88l-140 -14q12.5 -116 78.5 -166.5q66 -50.5 165 -50.5q108.5 0 170.5 58.5q62 58.5 62 145.5q0 49.5 -17.5 94.5q-18 44.5 -56.5 93.5q-25.5 32.5 -92 93.5q-66.5 61 -84 81q-18 20 -29 39l279 0" />
</g>
<g id="PathID_7187" transform="matrix(0.0352941, 0, 0, 0.0352941, 0, 84)">
<path style="fill:#666666;fill-opacity:1" d="M38.5 -194.5l136 -16.5q6.5 52 35 79.5q28.5 27.5 69 27.5q43.5 0 73.5 -33q29.5 -33 29.5 -89q0 -53 -28.5 -84q-28.5 -31 -69.5 -31q-27 0 -64.5 10.5l15.5 -114.5q57 1.5 87 -24.5q30 -26.5 30 -70q0 -37 -22 -59q-22 -22 -58.5 -22q-36 0 -61.5 25q-25.5 25 -31 73l-129.5 -22q13.5 -66.5 41 -106q27 -40 76 -62.5q48.5 -23 109 -23q103.5 0 166 66q51.5 54 51.5 122q0 96.5 -105.5 154q63 13.5 101 60.5q37.5 47 37.5 113.5q0 96.5 -70.5 164.5q-70.5 68 -175.5 68q-99.5 0 -165 -57q-65.5 -57.5 -76 -150l0 0" />
</g>
<g id="PathID_7188" transform="matrix(0.0352941, 0, 0, 0.0352941, 48, 84)">
<path style="fill:#666666;fill-opacity:1" d="M415.5 -269.5l0 -123.5l319 0l0 292q-46.5 45 -134.5 79.5q-88.5 34 -179 34q-115 0 -200.5 -48q-85.5 -48.5 -128.5 -138q-43 -90 -43 -195.5q0 -114.5 48 -203.5q48 -89 140.5 -136.5q70.5 -36.5 175.5 -36.5q136.5 0 213.5 57.5q76.5 57 98.5 158l-147 27.5q-15.5 -54 -58 -85q-43 -31.5 -107 -31.5q-97 0 -154 61.5q-57.5 61.5 -57.5 182.5q0 130.5 58 196q58 65 152 65q46.5 0 93.5 -18q46.5 -18.5 80 -44.5l0 -93l-169.5 0" />
</g>
<g id="PathID_7189" transform="matrix(0.0352941, 0, 0, 0.0352941, 96, 84)">
<path style="fill:#666666;fill-opacity:1" d="M44.5 -362q0 -112 33.5 -188q25 -56 68.5 -100.5q43 -44.5 94.5 -66q68.5 -29 158 -29q162 0 259.5 100.5q97 100.5 97 279.5q0 177.5 -96.5 278q-96.5 100 -258 100q-163.5 0 -260 -99.5q-96.5 -100 -96.5 -275l0 0M197 -367q0 124.5 57.5 189q57.5 64 146 64q88.5 0 145.5 -63.5q56.5 -64 56.5 -191.5q0 -126 -55 -188q-55.5 -62 -147 -62q-91.5 0 -147.5 63q-56 62.5 -56 189l0 0" />
</g>
</svg>
