<?xml version="1.0" encoding="utf-8"?>
<svg version="1.1" id="Layer_1"
xmlns="http://www.w3.org/2000/svg"
xmlns:xlink="http://www.w3.org/1999/xlink"
width="297px" height="87px"
xml:space="preserve">
<g id="PathID_13" transform="matrix(1, 0, 0, 1, 0, 0)">
<path style="fill:#FFFFFF;fill-opacity:1" d="M296.3 8.5L218.5 86.3L210 77.8L287.85 0L296.3 8.5M266.3 8.5L188.5 86.3L180 77.8L257.85 0L266.3 8.5M236.3 8.5L158.5 86.3L150 77.8L227.85 0L236.3 8.5M176.3 8.5L98.5 86.3L90 77.8L167.85 0L176.3 8.5M206.3 8.5L128.5 86.3L120 77.8L197.85 0L206.3 8.5M146.3 8.5L68.5 86.3L60 77.8L137.85 0L146.3 8.5M116.3 8.5L38.5 86.3L30 77.8L107.85 0L116.3 8.5M0 77.8L77.85 0L86.3 8.5L8.5 86.3L0 77.8" />
</g>
</svg>
