<?xml version="1.0" encoding="utf-8"?>
<svg version="1.1" id="Layer_1"
xmlns="http://www.w3.org/2000/svg"
xmlns:xlink="http://www.w3.org/1999/xlink"
width="64px" height="12px"
xml:space="preserve">
<g id="PathID_8" transform="matrix(1, 0, 0, 1, 25.4, 3.9)">
<path style="fill:#FFFFFF;fill-opacity:1" d="M2.65 -1L2.65 -3.9L5.25 -3.9L5.25 4.75L2.85 4.75L2.85 3.85L2.25 4.55L1 4.9Q-0.3 4.9 -1 3.9Q-1.7 2.9 -1.7 1.5Q-1.7 -0.05 -0.95 -0.9Q-0.15 -1.7 1 -1.7L2.05 -1.55L2.65 -1M9.3 -1.6L9.3 4.75L6.75 4.75L6.75 -1.6L9.3 -1.6M9.3 -2.1L6.75 -2.1L6.75 -3.9L9.3 -3.9L9.3 -2.1M15.2 -1.7Q16.25 -1.7 16.8 -1.1Q17.4 -0.5 17.4 0.75L17.4 4.75L14.8 4.75L14.8 1.3L14.6 0.55L14.1 0.35Q13.75 0.35 13.5 0.65Q13.3 0.9 13.3 1.7L13.3 4.75L10.7 4.75L10.7 -1.6L13.15 -1.6L13.15 -0.6L13.95 -1.45L15.2 -1.7M25.45 -1.6L25.45 4.65L25.2 5.7L24.5 6.6Q24.05 6.95 23.45 7.1L21.95 7.2Q20.1 7.2 19.35 6.65Q18.65 6.05 18.65 5.1L18.65 4.65L21.15 4.9L21.4 5.45L21.95 5.5L22.6 5.3L22.85 4.45L22.85 3.65L22.3 4.2L21.1 4.5Q19.8 4.5 19 3.4Q18.45 2.6 18.45 1.3Q18.45 -0.15 19.2 -0.95Q19.9 -1.7 21.1 -1.7L22.3 -1.45L23 -0.7L23 -1.6L25.45 -1.6M30.85 2.15L33.6 2.15L33.6 4.75L30.85 4.75L30.85 2.15M34.9 2.15L37.65 2.15L37.65 4.75L34.9 4.75L34.9 2.15M29.55 2.15L29.55 4.75L26.8 4.75L26.8 2.15L29.55 2.15M21.9 0.2Q21.5 0.2 21.3 0.5Q21.05 0.8 21.05 1.5Q21.05 2.1 21.3 2.4Q21.55 2.65 21.95 2.65L22.6 2.4L22.85 1.45L22.55 0.5Q22.3 0.2 21.9 0.2M1.75 0.25Q1.4 0.25 1.15 0.55Q0.9 0.85 0.9 1.6Q0.9 2.35 1.15 2.65Q1.4 2.95 1.75 2.95Q2.15 2.95 2.4 2.65L2.7 1.55L2.4 0.55Q2.15 0.25 1.75 0.25M-22.55 -3.9L-22.55 2.45L-18.5 2.45L-18.5 4.75L-25.4 4.75L-25.4 -3.9L-22.55 -3.9M-14.15 -1.7Q-12.3 -1.7 -11.3 -0.6Q-10.55 0.25 -10.55 1.55Q-10.55 3 -11.5 3.95Q-12.45 4.9 -14.15 4.9Q-15.7 4.9 -16.6 4.1Q-17.8 3.15 -17.8 1.6Q-17.8 0.15 -16.8 -0.8Q-15.85 -1.7 -14.15 -1.7M-7.5 -1.6L-6.3 -1.7L-4.55 -1.6Q-3.9 -1.5 -3.4 -0.95Q-3.1 -0.8 -2.95 -0.3L-2.75 0.65L-2.75 3.35L-2.7 4L-2.45 4.75L-4.85 4.75L-5.05 4.3L-5.1 4L-5.9 4.65L-7.4 4.9Q-8.55 4.9 -9.1 4.35Q-9.75 3.8 -9.75 3Q-9.75 2.3 -9.3 1.8Q-8.85 1.3 -7.7 1.1L-6.05 0.7L-5.3 0.5Q-5.3 0.2 -5.45 0.05L-5.95 -0.1L-6.75 0.05L-7.1 0.6L-9.55 0.35L-9.15 -0.7L-8.45 -1.35L-7.5 -1.6M-7.15 2.85L-7 3.2L-6.5 3.35L-5.85 3.2L-5.4 2.75L-5.3 2.1L-5.3 1.85L-6.25 2.15Q-6.8 2.35 -7 2.5L-7.15 2.85M-14.15 0.1Q-14.6 0.1 -14.9 0.5L-15.2 1.6L-14.9 2.7Q-14.6 3.05 -14.15 3.05L-13.4 2.75Q-13.15 2.4 -13.15 1.55Q-13.15 0.8 -13.4 0.45Q-13.7 0.1 -14.15 0.1" />
<path style="fill:none;stroke-width:0.7;stroke-linecap:round;stroke-linejoin:round;stroke-miterlimit:3;stroke:#000000;stroke-opacity:1" d="M2.65 -1L2.65 -3.9L5.25 -3.9L5.25 4.75L2.85 4.75L2.85 3.85L2.25 4.55L1 4.9Q-0.3 4.9 -1 3.9Q-1.7 2.9 -1.7 1.5Q-1.7 -0.05 -0.95 -0.9Q-0.15 -1.7 1 -1.7L2.05 -1.55L2.65 -1z" />
<path style="fill:none;stroke-width:0.7;stroke-linecap:round;stroke-linejoin:round;stroke-miterlimit:3;stroke:#000000;stroke-opacity:1" d="M9.3 -1.6L9.3 4.75L6.75 4.75L6.75 -1.6L9.3 -1.6z" />
<path style="fill:none;stroke-width:0.7;stroke-linecap:round;stroke-linejoin:round;stroke-miterlimit:3;stroke:#000000;stroke-opacity:1" d="M9.3 -2.1L6.75 -2.1L6.75 -3.9L9.3 -3.9L9.3 -2.1z" />
<path style="fill:none;stroke-width:0.7;stroke-linecap:round;stroke-linejoin:round;stroke-miterlimit:3;stroke:#000000;stroke-opacity:1" d="M15.2 -1.7Q16.25 -1.7 16.8 -1.1Q17.4 -0.5 17.4 0.75L17.4 4.75L14.8 4.75L14.8 1.3L14.6 0.55L14.1 0.35Q13.75 0.35 13.5 0.65Q13.3 0.9 13.3 1.7L13.3 4.75L10.7 4.75L10.7 -1.6L13.15 -1.6L13.15 -0.6L13.95 -1.45L15.2 -1.7z" />
<path style="fill:none;stroke-width:0.7;stroke-linecap:round;stroke-linejoin:round;stroke-miterlimit:3;stroke:#000000;stroke-opacity:1" d="M25.45 -1.6L25.45 4.65L25.2 5.7L24.5 6.6Q24.05 6.95 23.45 7.1L21.95 7.2Q20.1 7.2 19.35 6.65Q18.65 6.05 18.65 5.1L18.65 4.65L21.15 4.9L21.4 5.45L21.95 5.5L22.6 5.3L22.85 4.45L22.85 3.65L22.3 4.2L21.1 4.5Q19.8 4.5 19 3.4Q18.45 2.6 18.45 1.3Q18.45 -0.15 19.2 -0.95Q19.9 -1.7 21.1 -1.7L22.3 -1.45L23 -0.7L23 -1.6L25.45 -1.6z" />
<path style="fill:none;stroke-width:0.7;stroke-linecap:round;stroke-linejoin:round;stroke-miterlimit:3;stroke:#000000;stroke-opacity:1" d="M30.85 2.15L33.6 2.15L33.6 4.75L30.85 4.75L30.85 2.15z" />
<path style="fill:none;stroke-width:0.7;stroke-linecap:round;stroke-linejoin:round;stroke-miterlimit:3;stroke:#000000;stroke-opacity:1" d="M34.9 2.15L37.65 2.15L37.65 4.75L34.9 4.75L34.9 2.15z" />
<path style="fill:none;stroke-width:0.7;stroke-linecap:round;stroke-linejoin:round;stroke-miterlimit:3;stroke:#000000;stroke-opacity:1" d="M29.55 2.15L29.55 4.75L26.8 4.75L26.8 2.15L29.55 2.15z" />
<path style="fill:none;stroke-width:0.7;stroke-linecap:round;stroke-linejoin:round;stroke-miterlimit:3;stroke:#000000;stroke-opacity:1" d="M21.9 0.2Q21.5 0.2 21.3 0.5Q21.05 0.8 21.05 1.5Q21.05 2.1 21.3 2.4Q21.55 2.65 21.95 2.65L22.6 2.4L22.85 1.45L22.55 0.5Q22.3 0.2 21.9 0.2z" />
<path style="fill:none;stroke-width:0.7;stroke-linecap:round;stroke-linejoin:round;stroke-miterlimit:3;stroke:#000000;stroke-opacity:1" d="M1.75 0.25Q1.4 0.25 1.15 0.55Q0.9 0.85 0.9 1.6Q0.9 2.35 1.15 2.65Q1.4 2.95 1.75 2.95Q2.15 2.95 2.4 2.65L2.7 1.55L2.4 0.55Q2.15 0.25 1.75 0.25z" />
<path style="fill:none;stroke-width:0.7;stroke-linecap:round;stroke-linejoin:round;stroke-miterlimit:3;stroke:#000000;stroke-opacity:1" d="M-22.55 -3.9L-22.55 2.45L-18.5 2.45L-18.5 4.75L-25.4 4.75L-25.4 -3.9L-22.55 -3.9z" />
<path style="fill:none;stroke-width:0.7;stroke-linecap:round;stroke-linejoin:round;stroke-miterlimit:3;stroke:#000000;stroke-opacity:1" d="M-14.15 -1.7Q-12.3 -1.7 -11.3 -0.6Q-10.55 0.25 -10.55 1.55Q-10.55 3 -11.5 3.95Q-12.45 4.9 -14.15 4.9Q-15.7 4.9 -16.6 4.1Q-17.8 3.15 -17.8 1.6Q-17.8 0.15 -16.8 -0.8Q-15.85 -1.7 -14.15 -1.7z" />
<path style="fill:none;stroke-width:0.7;stroke-linecap:round;stroke-linejoin:round;stroke-miterlimit:3;stroke:#000000;stroke-opacity:1" d="M-7.5 -1.6L-6.3 -1.7L-4.55 -1.6Q-3.9 -1.5 -3.4 -0.95Q-3.1 -0.8 -2.95 -0.3L-2.75 0.65L-2.75 3.35L-2.7 4L-2.45 4.75L-4.85 4.75L-5.05 4.3L-5.1 4L-5.9 4.65L-7.4 4.9Q-8.55 4.9 -9.1 4.35Q-9.75 3.8 -9.75 3Q-9.75 2.3 -9.3 1.8Q-8.85 1.3 -7.7 1.1L-6.05 0.7L-5.3 0.5Q-5.3 0.2 -5.45 0.05L-5.95 -0.1L-6.75 0.05L-7.1 0.6L-9.55 0.35L-9.15 -0.7L-8.45 -1.35L-7.5 -1.6z" />
<path style="fill:none;stroke-width:0.7;stroke-linecap:round;stroke-linejoin:round;stroke-miterlimit:3;stroke:#000000;stroke-opacity:1" d="M-7.15 2.85L-7 3.2L-6.5 3.35L-5.85 3.2L-5.4 2.75L-5.3 2.1L-5.3 1.85L-6.25 2.15Q-6.8 2.35 -7 2.5L-7.15 2.85z" />
<path style="fill:none;stroke-width:0.7;stroke-linecap:round;stroke-linejoin:round;stroke-miterlimit:3;stroke:#000000;stroke-opacity:1" d="M-14.15 0.1Q-14.6 0.1 -14.9 0.5L-15.2 1.6L-14.9 2.7Q-14.6 3.05 -14.15 3.05L-13.4 2.75Q-13.15 2.4 -13.15 1.55Q-13.15 0.8 -13.4 0.45Q-13.7 0.1 -14.15 0.1z" />
</g>
</svg>
